<svg width="845" height="324" viewBox="0 0 845 324" fill="none" xmlns="http://www.w3.org/2000/svg">
<path fill-rule="evenodd" clip-rule="evenodd" d="M0 216L12.675 204C25.35 192 51.4042 168 76.7542 126C102.104 84 128.158 24 153.508 30C179.562 36 204.912 108 230.262 162C256.317 216 281.667 252 307.017 222C333.071 192 358.421 96 383.771 96C409.825 96 435.175 192 461.229 204C486.579 216 511.929 144 537.983 120C563.333 96 588.683 120 614.737 108C640.087 96 665.437 48 691.492 36C716.842 24 742.896 48 768.246 48C793.596 48 819.65 24 832.325 12L845 0V324H832.325C819.65 324 793.596 324 768.246 324C742.896 324 716.842 324 691.492 324C665.437 324 640.087 324 614.737 324C588.683 324 563.333 324 537.983 324C511.929 324 486.579 324 461.229 324C435.175 324 409.825 324 383.771 324C358.421 324 333.071 324 307.017 324C281.667 324 256.317 324 230.262 324C204.912 324 179.562 324 153.508 324C128.158 324 102.104 324 76.7542 324C51.4042 324 25.35 324 12.675 324H0V216Z" fill="#2C2C2C"/>
</svg>
