<svg width="414" height="65" viewBox="0 0 414 65" fill="none" xmlns="http://www.w3.org/2000/svg">
<g clip-path="url(#clip0)">
<rect width="414" height="65" transform="translate(414 65) rotate(-180)" fill="white"/>
<g clip-path="url(#clip1)">
<rect width="414" height="198" transform="translate(1.52588e-05 -103)" fill="white"/>
<path fill-rule="evenodd" clip-rule="evenodd" d="M331 19.3098L328.116 16.6107C325.232 13.9116 319.705 8.51339 313.937 11.2125C308.41 13.9116 302.642 24.708 297.115 30.1062C291.347 35.5045 285.82 35.5045 280.052 34.1549C274.525 32.8054 268.757 30.1062 263.23 27.4071C257.462 24.708 251.935 22.0089 246.167 26.0576C240.639 30.1062 234.872 40.9027 229.104 32.8053C223.577 24.708 217.809 -2.28305 212.282 -10.3804C206.514 -18.4777 200.987 -7.68126 195.219 1.76561C189.692 11.2125 183.924 19.3098 178.396 26.0576C172.629 32.8053 167.101 38.2036 161.334 42.2522C155.806 46.3009 150.039 49 144.511 49C138.744 49 132.976 46.3009 127.448 35.5044C121.681 24.708 116.153 5.81427 110.386 -2.28306C104.858 -10.3804 99.0907 -7.68127 93.5633 -2.28306C87.7956 3.11516 82.2682 11.2125 76.5005 12.562C70.9731 13.9116 65.2054 8.51337 59.6781 3.11515C53.9104 -2.28306 48.383 -7.68128 45.4992 -10.3804L42.6153 -13.0795L42.6153 -29.2741L45.4992 -29.2741C48.383 -29.2741 53.9104 -29.2741 59.6781 -29.2741C65.2055 -29.2741 70.9732 -29.2741 76.5005 -29.2741C82.2682 -29.2741 87.7956 -29.2741 93.5633 -29.2741C99.0907 -29.2741 104.858 -29.2741 110.386 -29.2741C116.153 -29.2741 121.681 -29.2741 127.448 -29.2741C132.976 -29.2741 138.744 -29.2741 144.511 -29.2741C150.039 -29.2741 155.806 -29.2741 161.334 -29.2741C167.101 -29.2741 172.629 -29.2741 178.396 -29.2741C183.924 -29.2741 189.692 -29.2741 195.219 -29.2741C200.987 -29.2741 206.514 -29.2741 212.282 -29.2741C217.809 -29.2741 223.577 -29.2741 229.104 -29.2741C234.872 -29.2741 240.639 -29.2741 246.167 -29.2741C251.935 -29.2741 257.462 -29.2741 263.23 -29.2741C268.757 -29.2741 274.525 -29.2741 280.052 -29.2741C285.82 -29.2741 291.347 -29.2741 297.115 -29.2741C302.642 -29.2741 308.41 -29.2741 313.937 -29.2741C319.705 -29.2741 325.232 -29.2741 328.116 -29.2741L331 -29.2741L331 19.3098Z" fill="#0E606B"/>
<path fill-rule="evenodd" clip-rule="evenodd" d="M414 31.0458L410.205 31.0458C406.755 31.0458 399.51 31.0458 392.265 34.9296C385.02 38.8134 377.775 46.581 370.53 48.5229C363.285 50.4648 356.04 46.581 348.795 38.8134C341.205 31.0458 333.96 19.3945 326.715 25.2201C319.47 31.0458 312.225 54.3486 304.98 60.1743C297.735 66 290.49 54.3486 283.245 42.6972C276 31.0458 268.755 19.3944 261.51 5.80116C254.265 -7.79212 247.02 -23.3273 239.775 -21.3854C232.53 -19.4435 225.285 -0.0245297 218.04 17.4525C210.795 34.9296 203.205 50.4648 195.96 48.5229C188.715 46.581 181.47 27.162 174.225 9.68495C166.98 -7.79213 159.735 -23.3273 152.49 -27.2111C145.245 -31.0949 138 -23.3273 130.755 -13.6178C123.51 -3.90834 116.265 7.74305 109.02 21.3363C101.775 34.9296 94.53 50.4648 87.285 48.5229C80.04 46.581 72.795 27.162 65.205 21.3363C57.96 15.5106 50.715 23.2782 43.47 27.162C36.225 31.0458 28.98 31.0458 21.735 36.8715C14.49 42.6972 7.245 54.3486 3.79498 60.1743L0 66L1.09904e-05 -59.7156L3.79499 -59.7156C7.24501 -59.7156 14.49 -59.7156 21.735 -59.7156C28.98 -59.7156 36.225 -59.7156 43.47 -59.7156C50.715 -59.7156 57.96 -59.7156 65.205 -59.7156C72.795 -59.7156 80.04 -59.7156 87.285 -59.7156C94.53 -59.7156 101.775 -59.7156 109.02 -59.7156C116.265 -59.7156 123.51 -59.7156 130.755 -59.7156C138 -59.7156 145.245 -59.7156 152.49 -59.7156C159.735 -59.7156 166.98 -59.7156 174.225 -59.7156C181.47 -59.7156 188.715 -59.7156 195.96 -59.7156C203.205 -59.7156 210.795 -59.7156 218.04 -59.7156C225.285 -59.7156 232.53 -59.7156 239.775 -59.7156C247.02 -59.7156 254.265 -59.7156 261.51 -59.7156C268.755 -59.7156 276 -59.7156 283.245 -59.7156C290.49 -59.7156 297.735 -59.7156 304.98 -59.7156C312.225 -59.7156 319.47 -59.7156 326.715 -59.7156C333.96 -59.7156 341.205 -59.7156 348.795 -59.7156C356.04 -59.7156 363.285 -59.7156 370.53 -59.7156C377.775 -59.7156 385.02 -59.7156 392.265 -59.7156C399.51 -59.7156 406.755 -59.7156 410.205 -59.7156L414 -59.7156L414 31.0458Z" fill="#1697A6"/>
</g>
</g>
<defs>
<clipPath id="clip0">
<rect width="414" height="65" fill="white" transform="translate(414 65) rotate(-180)"/>
</clipPath>
<clipPath id="clip1">
<rect width="414" height="198" fill="white" transform="translate(1.52588e-05 -103)"/>
</clipPath>
</defs>
</svg>
