<svg width="374" height="473" viewBox="0 0 374 473" fill="none" xmlns="http://www.w3.org/2000/svg">
<path fill-rule="evenodd" clip-rule="evenodd" d="M363.446 337.658C355.808 334.201 354.071 317.044 360.866 312.177C393.593 288.74 413.188 248.906 408.833 205.89C402.344 141.798 345.146 94.9123 281.077 101.168C217.008 107.424 170.33 164.452 176.819 228.544C181.174 271.56 208.371 306.825 245.157 323.476C252.795 326.933 254.532 344.09 247.737 348.956C215.01 372.394 195.415 412.228 199.77 455.244C206.259 519.336 263.457 566.221 327.526 559.965C391.595 553.709 438.273 496.681 431.784 432.589C427.429 389.573 400.232 354.308 363.446 337.658ZM366.854 437.112C363.785 406.805 336.738 384.634 306.442 387.593C276.146 390.551 254.073 417.518 257.142 447.825C260.21 478.132 287.257 500.302 317.553 497.344C347.849 494.386 369.922 467.419 366.854 437.112Z" fill="#D1D1D1" fill-opacity="0.17"/>
<path d="M440.261 205.546C444.89 205.094 448.264 200.936 447.493 196.345C433.859 115.155 359.862 57.1348 277.434 65.1833C195.006 73.2318 134.09 144.425 137.002 226.662C137.167 231.312 141.309 234.736 145.937 234.284C150.477 233.841 153.779 229.827 153.646 225.266C151.518 152.182 205.793 89.0717 279.128 81.911C352.462 74.7504 418.328 126.13 430.895 198.195C431.679 202.692 435.722 205.989 440.261 205.546Z" fill="#D1D1D1" fill-opacity="0.17"/>
<path d="M146.529 243.312C151.992 242.779 156.869 246.777 157.423 252.242C157.976 257.707 153.996 262.57 148.532 263.103C143.069 263.637 138.192 259.639 137.638 254.174C137.085 248.708 141.065 243.846 146.529 243.312Z" fill="#D1D1D1" fill-opacity="0.17"/>
<path d="M149.26 270.3C157.704 269.476 165.241 275.654 166.097 284.101C166.952 292.547 160.8 300.062 152.357 300.887C143.914 301.711 136.376 295.532 135.521 287.086C134.666 278.64 140.817 271.125 149.26 270.3Z" fill="#D1D1D1" fill-opacity="0.17"/>
</svg>
