<svg width="282" height="314" viewBox="0 0 282 314" fill="none" xmlns="http://www.w3.org/2000/svg">
<path fill-rule="evenodd" clip-rule="evenodd" d="M104.313 76.0995C102.057 81.083 90.8626 82.2163 87.6874 77.7827C72.3949 56.4289 46.4043 43.6442 18.3375 46.4857C-23.4808 50.7194 -54.0723 88.0397 -49.9905 129.843C-45.9087 171.646 -8.69936 202.102 33.1189 197.868C61.1857 195.027 84.1953 177.281 95.0592 153.279C97.3148 148.296 108.509 147.163 111.685 151.596C126.977 172.95 152.968 185.735 181.035 182.893C222.853 178.66 253.444 141.339 249.362 99.5361C245.281 57.733 208.071 27.2769 166.253 31.5106C138.186 34.3521 115.177 52.0977 104.313 76.0995ZM169.204 73.8759C149.429 75.8779 134.964 93.5255 136.894 113.293C138.824 133.06 156.419 147.462 176.194 145.46C195.968 143.458 210.434 125.81 208.504 106.043C206.574 86.2756 188.978 71.8739 169.204 73.8759Z" fill="#D1D1D1" fill-opacity="0.17"/>
<path d="M18.113 25.9794C17.8181 22.9594 15.1051 20.7581 12.1098 21.2611C-40.8647 30.1565 -78.7211 78.4379 -73.4697 132.22C-68.2182 186.002 -21.7667 225.748 31.8909 223.848C34.9249 223.74 37.1591 221.038 36.8642 218.018C36.575 215.056 33.9562 212.901 30.9802 212.988C-16.7054 214.376 -57.8831 178.964 -62.5552 131.115C-67.2274 83.2659 -33.7036 40.2905 13.3169 32.0908C16.2514 31.579 18.4022 28.9413 18.113 25.9794Z" fill="#D1D1D1" fill-opacity="0.17"/>
<path d="M42.7547 217.632C42.4066 214.067 45.0152 210.885 48.5811 210.524C52.147 210.163 55.3199 212.76 55.6679 216.325C56.016 219.889 53.4074 223.072 49.8415 223.433C46.2756 223.794 43.1027 221.197 42.7547 217.632Z" fill="#D1D1D1" fill-opacity="0.17"/>
<path d="M60.3636 215.85C59.8257 210.341 63.8571 205.422 69.3681 204.865C74.879 204.307 79.7826 208.32 80.3205 213.829C80.8584 219.338 76.827 224.256 71.316 224.814C65.8051 225.372 60.9015 221.359 60.3636 215.85Z" fill="#D1D1D1" fill-opacity="0.17"/>
</svg>
