<svg width="886" height="238" viewBox="0 0 886 238" fill="none" xmlns="http://www.w3.org/2000/svg">
<path fill-rule="evenodd" clip-rule="evenodd" d="M192 125.976L198.27 132.199C204.54 138.423 216.557 150.87 229.097 144.646C241.115 138.423 253.655 113.529 265.672 101.082C278.212 88.6344 290.23 88.6344 302.77 91.7462C314.787 94.858 327.327 101.082 339.345 107.305C351.885 113.529 363.902 119.752 376.442 110.417C388.46 101.082 401 76.1873 413.54 94.858C425.557 113.529 438.097 175.764 450.115 194.435C462.655 213.106 474.672 188.211 487.212 166.429C499.23 144.646 511.77 125.976 523.787 110.417C536.327 94.858 548.345 82.4109 560.885 73.0755C572.902 63.7402 585.442 57.5166 597.46 57.5166C610 57.5166 622.54 63.7402 634.557 88.6344C647.097 113.529 659.115 157.094 671.655 175.764C683.672 194.435 696.212 188.211 708.23 175.764C720.77 163.317 732.787 144.646 745.327 141.535C757.345 138.423 769.885 150.87 781.902 163.317C794.442 175.764 806.46 188.211 812.73 194.435L819 200.659V238H812.73C806.46 238 794.442 238 781.902 238C769.885 238 757.345 238 745.327 238C732.787 238 720.77 238 708.23 238C696.212 238 683.672 238 671.655 238C659.115 238 647.097 238 634.557 238C622.54 238 610 238 597.46 238C585.442 238 572.902 238 560.885 238C548.345 238 536.327 238 523.787 238C511.77 238 499.23 238 487.212 238C474.672 238 462.655 238 450.115 238C438.097 238 425.557 238 413.54 238C401 238 388.46 238 376.442 238C363.902 238 351.885 238 339.345 238C327.327 238 314.787 238 302.77 238C290.23 238 278.212 238 265.672 238C253.655 238 241.115 238 229.097 238C216.557 238 204.54 238 198.27 238H192V125.976Z" fill="#0E606B"/>
<path fill-rule="evenodd" clip-rule="evenodd" d="M0 79.3333H8.12167C15.505 79.3333 31.01 79.3333 46.515 70.5185C62.02 61.7037 77.525 44.0741 93.03 39.6667C108.535 35.2593 124.04 44.0741 139.545 61.7037C155.788 79.3333 171.293 105.778 186.798 92.5556C202.303 79.3333 217.808 26.4444 233.313 13.2222C248.818 0 264.323 26.4444 279.828 52.8889C295.333 79.3333 310.838 105.778 326.343 136.63C341.848 167.481 357.353 202.741 372.858 198.333C388.363 193.926 403.868 149.852 419.373 110.185C434.878 70.5185 451.122 35.2593 466.627 39.6667C482.132 44.0741 497.637 88.1481 513.142 127.815C528.647 167.481 544.152 202.741 559.657 211.556C575.162 220.37 590.667 202.741 606.172 180.704C621.677 158.667 637.182 132.222 652.687 101.37C668.192 70.5185 683.697 35.2593 699.202 39.6667C714.707 44.0741 730.212 88.1481 746.455 101.37C761.96 114.593 777.465 96.963 792.97 88.1481C808.475 79.3333 823.98 79.3333 839.485 66.1111C854.99 52.8889 870.495 26.4444 877.878 13.2222L886 0V238H877.878C870.495 238 854.99 238 839.485 238C823.98 238 808.475 238 792.97 238C777.465 238 761.96 238 746.455 238C730.212 238 714.707 238 699.202 238C683.697 238 668.192 238 652.687 238C637.182 238 621.677 238 606.172 238C590.667 238 575.162 238 559.657 238C544.152 238 528.647 238 513.142 238C497.637 238 482.132 238 466.627 238C451.122 238 434.878 238 419.373 238C403.868 238 388.363 238 372.858 238C357.353 238 341.848 238 326.343 238C310.838 238 295.333 238 279.828 238C264.323 238 248.818 238 233.313 238C217.808 238 202.303 238 186.798 238C171.293 238 155.788 238 139.545 238C124.04 238 108.535 238 93.03 238C77.525 238 62.02 238 46.515 238C31.01 238 15.505 238 8.12167 238H0V79.3333Z" fill="#1697A6"/>
</svg>
