<svg width="318" height="398" viewBox="0 0 318 398" fill="none" xmlns="http://www.w3.org/2000/svg">
<path fill-rule="evenodd" clip-rule="evenodd" d="M220.313 160.1C218.057 165.083 206.863 166.216 203.687 161.783C188.395 140.429 162.404 127.644 134.338 130.486C92.5193 134.719 61.9278 172.04 66.0096 213.843C70.0914 255.646 107.301 286.102 149.119 281.868C177.186 279.027 200.195 261.281 211.059 237.279C213.315 232.296 224.509 231.163 227.685 235.596C242.977 256.95 268.968 269.735 297.035 266.893C338.853 262.66 369.444 225.339 365.363 183.536C361.281 141.733 324.071 111.277 282.253 115.511C254.186 118.352 231.177 136.098 220.313 160.1ZM285.204 157.876C265.429 159.878 250.964 177.525 252.894 197.293C254.824 217.06 272.419 231.462 292.194 229.46C311.968 227.458 326.434 209.81 324.504 190.043C322.574 170.276 304.979 155.874 285.204 157.876Z" fill="#D1D1D1" fill-opacity="0.17"/>
<path d="M134.113 109.979C133.818 106.959 131.105 104.758 128.11 105.261C75.1353 114.156 37.279 162.438 42.5304 216.22C47.7818 270.002 94.2334 309.748 147.891 307.848C150.925 307.74 153.159 305.038 152.864 302.018C152.575 299.056 149.956 296.901 146.98 296.988C99.2947 298.376 58.1169 262.964 53.4448 215.115C48.7727 167.266 82.2964 124.291 129.317 116.091C132.251 115.579 134.402 112.941 134.113 109.979Z" fill="#D1D1D1" fill-opacity="0.17"/>
<path d="M158.755 301.632C158.407 298.067 161.015 294.885 164.581 294.524C168.147 294.163 171.32 296.76 171.668 300.325C172.016 303.889 169.407 307.072 165.842 307.433C162.276 307.794 159.103 305.197 158.755 301.632Z" fill="#D1D1D1" fill-opacity="0.17"/>
<path d="M176.364 299.85C175.826 294.341 179.857 289.422 185.368 288.865C190.879 288.307 195.783 292.32 196.321 297.829C196.858 303.338 192.827 308.256 187.316 308.814C181.805 309.372 176.902 305.359 176.364 299.85Z" fill="#D1D1D1" fill-opacity="0.17"/>
</svg>
