<svg width="282" height="398" viewBox="0 0 282 398" fill="none" xmlns="http://www.w3.org/2000/svg">
<path fill-rule="evenodd" clip-rule="evenodd" d="M104.313 160.1C102.057 165.083 90.8626 166.216 87.6875 161.783C72.395 140.429 46.4043 127.644 18.3375 130.486C-23.4807 134.719 -54.0722 172.04 -49.9904 213.843C-45.9086 255.646 -8.6993 286.102 33.119 281.868C61.1858 279.027 84.1954 261.281 95.0592 237.279C97.3148 232.296 108.509 231.163 111.685 235.596C126.977 256.95 152.968 269.735 181.035 266.893C222.853 262.66 253.444 225.339 249.363 183.536C245.281 141.733 208.071 111.277 166.253 115.511C138.186 118.352 115.177 136.098 104.313 160.1ZM169.204 157.876C149.429 159.878 134.964 177.525 136.894 197.293C138.824 217.06 156.419 231.462 176.194 229.46C195.968 227.458 210.434 209.81 208.504 190.043C206.574 170.276 188.979 155.874 169.204 157.876Z" fill="#D1D1D1" fill-opacity="0.17"/>
<path d="M18.113 109.979C17.8182 106.959 15.1052 104.758 12.1098 105.261C-40.8647 114.156 -78.721 162.438 -73.4696 216.22C-68.2182 270.002 -21.7666 309.748 31.891 307.848C34.9249 307.74 37.1591 305.038 36.8643 302.018C36.5751 299.056 33.9563 296.901 30.9803 296.988C-16.7053 298.376 -57.8831 262.964 -62.5552 215.115C-67.2273 167.266 -33.7036 124.291 13.3169 116.091C16.2515 115.579 18.4023 112.941 18.113 109.979Z" fill="#D1D1D1" fill-opacity="0.17"/>
<path d="M42.7547 301.632C42.4067 298.067 45.0153 294.885 48.5812 294.524C52.147 294.163 55.3199 296.76 55.668 300.325C56.0161 303.889 53.4075 307.072 49.8416 307.433C46.2757 307.794 43.1028 305.197 42.7547 301.632Z" fill="#D1D1D1" fill-opacity="0.17"/>
<path d="M60.3637 299.85C59.8257 294.341 63.8572 289.422 69.3681 288.865C74.8791 288.307 79.7826 292.32 80.3205 297.829C80.8584 303.338 76.827 308.256 71.3161 308.814C65.8051 309.372 60.9016 305.359 60.3637 299.85Z" fill="#D1D1D1" fill-opacity="0.17"/>
</svg>
