<svg width="414" height="283" viewBox="0 0 414 283" fill="none" xmlns="http://www.w3.org/2000/svg">
<path fill-rule="evenodd" clip-rule="evenodd" d="M-99 198.976L-92.73 205.199C-86.46 211.423 -74.4425 223.87 -61.9025 217.647C-49.885 211.423 -37.345 186.529 -25.3275 174.082C-12.7875 161.634 -0.770004 161.634 11.77 164.746C23.7875 167.858 36.3275 174.082 48.345 180.305C60.885 186.529 72.9025 192.752 85.4425 183.417C97.46 174.082 110 149.187 122.54 167.858C134.557 186.529 147.097 248.764 159.115 267.435C171.655 286.106 183.672 261.211 196.212 239.429C208.23 217.647 220.77 198.976 232.787 183.417C245.327 167.858 257.345 155.411 269.885 146.076C281.902 136.74 294.442 130.517 306.46 130.517C319 130.517 331.54 136.74 343.557 161.634C356.097 186.529 368.115 230.094 380.655 248.764C392.672 267.435 405.212 261.211 417.23 248.764C429.77 236.317 441.787 217.647 454.327 214.535C466.345 211.423 478.885 223.87 490.902 236.317C503.443 248.764 515.46 261.211 521.73 267.435L528 273.659V311H521.73C515.46 311 503.443 311 490.902 311C478.885 311 466.345 311 454.327 311C441.787 311 429.77 311 417.23 311C405.212 311 392.672 311 380.655 311C368.115 311 356.097 311 343.557 311C331.54 311 319 311 306.46 311C294.442 311 281.902 311 269.885 311C257.345 311 245.327 311 232.787 311C220.77 311 208.23 311 196.212 311C183.672 311 171.655 311 159.115 311C147.097 311 134.557 311 122.54 311C110 311 97.46 311 85.4425 311C72.9025 311 60.885 311 48.345 311C36.3275 311 23.7875 311 11.77 311C-0.770004 311 -12.7875 311 -25.3275 311C-37.345 311 -49.885 311 -61.9025 311C-74.4425 311 -86.46 311 -92.73 311H-99V198.976Z" fill="#0E606B"/>
<path fill-rule="evenodd" clip-rule="evenodd" d="M-291 152.333H-282.878C-275.495 152.333 -259.99 152.333 -244.485 143.519C-228.98 134.704 -213.475 117.074 -197.97 112.667C-182.465 108.259 -166.96 117.074 -151.455 134.704C-135.212 152.333 -119.707 178.778 -104.202 165.556C-88.6967 152.333 -73.1917 99.4444 -57.6867 86.2222C-42.1817 73 -26.6767 99.4444 -11.1717 125.889C4.33334 152.333 19.8383 178.778 35.3434 209.63C50.8483 240.481 66.3533 275.741 81.8583 271.333C97.3633 266.926 112.868 222.852 128.373 183.185C143.878 143.519 160.122 108.259 175.627 112.667C191.132 117.074 206.637 161.148 222.142 200.815C237.647 240.481 253.152 275.741 268.657 284.556C284.162 293.37 299.667 275.741 315.172 253.704C330.677 231.667 346.182 205.222 361.687 174.37C377.192 143.519 392.697 108.259 408.202 112.667C423.707 117.074 439.212 161.148 455.455 174.37C470.96 187.593 486.465 169.963 501.97 161.148C517.475 152.333 532.98 152.333 548.485 139.111C563.99 125.889 579.495 99.4444 586.878 86.2222L595 73V311H586.878C579.495 311 563.99 311 548.485 311C532.98 311 517.475 311 501.97 311C486.465 311 470.96 311 455.455 311C439.212 311 423.707 311 408.202 311C392.697 311 377.192 311 361.687 311C346.182 311 330.677 311 315.172 311C299.667 311 284.162 311 268.657 311C253.152 311 237.647 311 222.142 311C206.637 311 191.132 311 175.627 311C160.122 311 143.878 311 128.373 311C112.868 311 97.3633 311 81.8583 311C66.3533 311 50.8483 311 35.3434 311C19.8383 311 4.33334 311 -11.1717 311C-26.6767 311 -42.1817 311 -57.6867 311C-73.1917 311 -88.6967 311 -104.202 311C-119.707 311 -135.212 311 -151.455 311C-166.96 311 -182.465 311 -197.97 311C-213.475 311 -228.98 311 -244.485 311C-259.99 311 -275.495 311 -282.878 311H-291V152.333Z" fill="#1697A6"/>
<circle cx="358.5" cy="30.5" r="30.5" fill="#F47068"/>
</svg>
