<svg width="414" height="198" viewBox="0 0 414 198" fill="none" xmlns="http://www.w3.org/2000/svg">
<g clip-path="url(#clip0)">
<path fill-rule="evenodd" clip-rule="evenodd" d="M370 91.2454L366.74 88.0096C363.48 84.7737 357.232 78.302 350.712 81.5379C344.463 84.7737 337.943 97.7171 331.695 104.189C325.175 110.661 318.927 110.661 312.407 109.043C306.158 107.425 299.638 104.189 293.39 100.953C286.87 97.7171 280.622 94.4813 274.102 99.3351C267.853 104.189 261.333 117.132 254.813 107.425C248.565 97.7171 242.045 65.3586 235.797 55.651C229.277 45.9434 223.028 58.8869 216.508 70.2124C210.26 81.5378 203.74 91.2454 197.492 99.3351C190.972 107.425 184.723 113.896 178.203 118.75C171.955 123.604 165.435 126.84 159.187 126.84C152.667 126.84 146.147 123.604 139.898 110.661C133.378 97.7171 127.13 75.0661 120.61 65.3586C114.362 55.651 107.842 58.8868 101.593 65.3586C95.0733 71.8303 88.825 81.5378 82.305 83.1558C76.0567 84.7737 69.5367 78.302 63.2883 71.8303C56.7683 65.3586 50.52 58.8868 47.26 55.651L44 52.4151L44 33L47.26 33C50.52 33 56.7683 33 63.2883 33C69.5367 33 76.0567 33 82.305 33C88.825 33 95.0733 33 101.593 33C107.842 33 114.362 33 120.61 33C127.13 33 133.378 33 139.898 33C146.147 33 152.667 33 159.187 33C165.435 33 171.955 33 178.203 33C184.723 33 190.972 33 197.492 33C203.74 33 210.26 33 216.508 33C223.028 33 229.277 33 235.797 33C242.045 33 248.565 33 254.813 33C261.333 33 267.853 33 274.102 33C280.622 33 286.87 33 293.39 33C299.638 33 306.158 33 312.407 33C318.927 33 325.175 33 331.695 33C337.943 33 344.463 33 350.712 33C357.232 33 363.48 33 366.74 33L370 33L370 91.2454Z" fill="#0E606B"/>
<path fill-rule="evenodd" clip-rule="evenodd" d="M454 109.81L449.71 109.81C445.81 109.81 437.62 109.81 429.43 114.467C421.24 119.123 413.05 128.435 404.86 130.763C396.67 133.091 388.48 128.435 380.29 119.123C371.71 109.81 363.52 95.842 355.33 102.826C347.14 109.81 338.95 137.747 330.76 144.731C322.57 151.716 314.38 137.747 306.19 123.779C298 109.81 289.81 95.842 281.62 79.5455C273.43 63.249 265.24 44.6245 257.05 46.9526C248.86 49.2806 240.67 72.5613 232.48 93.5139C224.29 114.466 215.71 133.091 207.52 130.763C199.33 128.435 191.14 105.154 182.95 84.2016C174.76 63.249 166.57 44.6245 158.38 39.9684C150.19 35.3122 142 44.6245 133.81 56.2648C125.62 67.9052 117.43 81.8736 109.24 98.17C101.05 114.466 92.86 133.091 84.67 130.763C76.48 128.435 68.29 105.154 59.71 98.17C51.52 91.1858 43.33 100.498 35.14 105.154C26.95 109.81 18.76 109.81 10.57 116.795C2.38001 123.779 -5.81 137.747 -9.70999 144.731L-14 151.716L-14 0.999944L-9.70998 0.999944C-5.80998 0.999945 2.38002 0.999945 10.57 0.999946C18.76 0.999947 26.95 0.999947 35.14 0.999948C43.33 0.999949 51.52 0.99995 59.71 0.99995C68.29 0.999951 76.48 0.999952 84.67 0.999952C92.86 0.999953 101.05 0.999954 109.24 0.999955C117.43 0.999955 125.62 0.999956 133.81 0.999957C142 0.999957 150.19 0.999958 158.38 0.999959C166.57 0.99996 174.76 0.99996 182.95 0.999961C191.14 0.999962 199.33 0.999962 207.52 0.999963C215.71 0.999964 224.29 0.999965 232.48 0.999965C240.67 0.999966 248.86 0.999967 257.05 0.999968C265.24 0.999968 273.43 0.999969 281.62 0.99997C289.81 0.99997 298 0.999971 306.19 0.999972C314.38 0.999973 322.57 0.999973 330.76 0.999974C338.95 0.999975 347.14 0.999975 355.33 0.999976C363.52 0.999977 371.71 0.999978 380.29 0.999978C388.48 0.999979 396.67 0.99998 404.86 0.99998C413.05 0.999981 421.24 0.999982 429.43 0.999983C437.62 0.999983 445.81 0.999984 449.71 0.999984L454 0.999985L454 109.81Z" fill="#1697A6"/>
</g>
<defs>
<clipPath id="clip0">
<rect width="414" height="198" fill="white" transform="translate(414 198) rotate(-180)"/>
</clipPath>
</defs>
</svg>
